<svg width="128" height="128" viewBox="0 0 128 128" fill="none" xmlns="http://www.w3.org/2000/svg">
<path d="M89.3916 73.4434C95.6834 75.2942 95.5857 84.24 89.2549 85.9531L41.6982 98.8223C37.5664 99.9403 33.5002 96.8283 33.5 92.5479V65.6914C33.5002 61.3522 37.671 58.2317 41.834 59.4561L89.3916 73.4434Z" fill="#202020" stroke="#D9D9D9" stroke-width="3"/>
<path d="M43.84 39.528L47.904 40.584V51.08C47.904 51.528 47.68 51.9653 47.232 52.392C46.784 52.7973 46.3253 53 45.856 53H41.28V50.824H45.728L44.96 42.248L41.28 41.288V31.784C41.28 31.4427 41.408 31.112 41.664 30.792C41.9413 30.4507 42.24 30.28 42.56 30.28H47.904V31.848L43.36 32.456L43.84 39.528ZM57.0275 30.728L57.1875 32.744H54.3715V53H51.6515L52.2915 33.32L49.9875 32.552L50.4035 30.28L57.0275 30.728ZM66.128 53H64.272L63.44 44.104H61.808L60.336 53H58.832L60.272 30.28H66.128V53ZM64.112 31.496C64.112 31.368 64.048 31.304 63.92 31.304H62.544C62.416 31.304 62.352 31.368 62.352 31.496V42.44C62.352 42.5467 62.416 42.6 62.544 42.6H63.92C64.048 42.6 64.112 42.536 64.112 42.408V31.496ZM71.1748 53H69.3188V31.592L68.6148 31.208V30.28H73.6068C74.4174 30.28 75.0894 30.44 75.6228 30.76C76.1774 31.0587 76.4654 31.4213 76.4868 31.848L76.1667 40.712C76.1667 41.032 76.0174 41.4267 75.7188 41.896C75.4414 42.344 74.9188 42.6747 74.1508 42.888L76.0388 46.408L76.7108 53L74.3748 53.096L73.8628 46.824L72.1028 43.048H71.1748V53ZM71.6228 40.744C71.6228 40.808 71.6548 40.872 71.7188 40.936C71.8041 40.9787 71.9001 41 72.0068 41H73.7028C73.8308 41 73.8948 40.936 73.8948 40.808L74.0868 32.712C74.0868 32.4133 73.9481 32.168 73.6708 31.976C73.4148 31.7627 72.8601 31.656 72.0068 31.656C71.7508 31.7413 71.6228 31.8693 71.6228 32.04V40.744ZM85.7775 30.728L85.9375 32.744H83.1215V53H80.4015L81.0415 33.32L78.7375 32.552L79.1535 30.28L85.7775 30.728Z" fill="#202020"/>
</svg>
