<svg width="64" height="64" viewBox="0 0 64 64" fill="none" xmlns="http://www.w3.org/2000/svg">
<mask id="path-1-inside-1_16_1186" fill="white">
<path d="M56 20C60.4183 20 64 23.5817 64 28V40C64 42.2091 62.2091 44 60 44H44V54C44 56.2091 42.2091 58 40 58H24C21.7909 58 20 56.2091 20 54V44H4C1.79086 44 6.44266e-08 42.2091 0 40V28C0 23.5817 3.58172 20 8 20H56Z"/>
</mask>
<path d="M56 20C60.4183 20 64 23.5817 64 28V40C64 42.2091 62.2091 44 60 44H44V54C44 56.2091 42.2091 58 40 58H24C21.7909 58 20 56.2091 20 54V44H4C1.79086 44 6.44266e-08 42.2091 0 40V28C0 23.5817 3.58172 20 8 20H56Z" fill="#202020"/>
<path d="M64 28H65V28H64ZM64 40H65V40H64ZM44 44V43H43V44H44ZM40 58V59V59V58ZM24 58V59V59V58ZM20 54H19H20ZM20 44H21V43H20V44ZM0 40H-1V40H0ZM56 20V21C59.866 21 63 24.134 63 28H64H65C65 23.0294 60.9706 19 56 19V20ZM64 28H63V40H64H65V28H64ZM64 40H63C63 41.6569 61.6569 43 60 43V44V45C62.7614 45 65 42.7614 65 40H64ZM60 44V43H44V44V45H60V44ZM44 44H43V54H44H45V44H44ZM44 54H43C43 55.6569 41.6569 57 40 57V58V59C42.7614 59 45 56.7614 45 54H44ZM40 58V57H24V58V59H40V58ZM24 58V57C22.3431 57 21 55.6569 21 54H20H19C19 56.7614 21.2386 59 24 59V58ZM20 54H21V44H20H19V54H20ZM20 44V43H4V44V45H20V44ZM4 44V43C2.34315 43 1 41.6569 1 40H0H-1C-1 42.7614 1.23858 45 4 45V44ZM0 40H1V28H0H-1V40H0ZM0 28H1C1 24.134 4.13401 21 8 21V20V19C3.02944 19 -1 23.0294 -1 28H0ZM8 20V21H56V20V19H8V20Z" fill="#585858" mask="url(#path-1-inside-1_16_1186)"/>
<path d="M32 12L28.5359 6L35.4641 6L32 12Z" fill="#D9D9D9"/>
<path d="M31.024 47H29.4V28.268L28.784 27.932V27.12H33.152C33.8613 27.12 34.4493 27.26 34.916 27.54C35.4013 27.8013 35.6533 28.1187 35.672 28.492L35.392 36.248C35.392 36.528 35.2613 36.8733 35 37.284C34.7573 37.676 34.3 37.9653 33.628 38.152L35.28 41.232L35.868 47L33.824 47.084L33.376 41.596L31.836 38.292H31.024V47ZM31.416 36.276C31.416 36.332 31.444 36.388 31.5 36.444C31.5747 36.4813 31.6587 36.5 31.752 36.5H33.236C33.348 36.5 33.404 36.444 33.404 36.332L33.572 29.248C33.572 28.9867 33.4507 28.772 33.208 28.604C32.984 28.4173 32.4987 28.324 31.752 28.324C31.528 28.3987 31.416 28.5107 31.416 28.66V36.276Z" fill="#D9D9D9"/>
</svg>
