<svg width="64" height="32" viewBox="0 0 64 32" fill="none" xmlns="http://www.w3.org/2000/svg">
<path d="M24 0.5H40C52.9787 0.5 63.5 11.0213 63.5 24V28C63.5 29.933 61.933 31.5 60 31.5H4C2.067 31.5 0.5 29.933 0.5 28V24C0.5 11.0213 11.0213 0.5 24 0.5Z" fill="#202020" stroke="#585858"/>
<path d="M26.024 26H24.4V7.268L23.784 6.932V6.12H28.152C28.8613 6.12 29.4493 6.26 29.916 6.54C30.4013 6.80133 30.6533 7.11867 30.672 7.492L30.392 15.248C30.392 15.528 30.2613 15.8733 30 16.284C29.7573 16.676 29.3 16.9653 28.628 17.152L30.28 20.232L30.868 26L28.824 26.084L28.376 20.596L26.836 17.292H26.024V26ZM26.416 15.276C26.416 15.332 26.444 15.388 26.5 15.444C26.5747 15.4813 26.6587 15.5 26.752 15.5H28.236C28.348 15.5 28.404 15.444 28.404 15.332L28.572 8.248C28.572 7.98667 28.4507 7.772 28.208 7.604C27.984 7.41733 27.4987 7.324 26.752 7.324C26.528 7.39867 26.416 7.51067 26.416 7.66V15.276ZM38.6614 15.808C39.0347 15.9013 39.4081 16.1533 39.7814 16.564C40.1734 16.9747 40.3694 17.488 40.3694 18.104L39.8094 25.16C39.8094 25.496 39.4921 25.72 38.8574 25.832C38.2414 25.944 37.6721 26 37.1494 26H33.3414V6.12H37.0654C37.7187 6.12 38.3347 6.27867 38.9134 6.596C39.5107 6.91333 39.8094 7.33333 39.8094 7.856V13.484L38.6614 15.808ZM35.1054 14.66C35.1054 14.8093 35.2174 14.884 35.4414 14.884H37.4574C37.5134 14.884 37.5787 14.8467 37.6534 14.772C37.6721 14.7533 37.6907 14.7067 37.7094 14.632L37.9614 7.94C37.9614 7.86533 37.8307 7.828 37.5694 7.828L35.1054 7.94V14.66ZM35.7494 24.432C37.2801 23.872 38.0454 23.368 38.0454 22.92C38.0454 22.808 38.0267 22.752 37.9894 22.752V17.012C38.0454 16.9747 38.0734 16.9467 38.0734 16.928C38.0734 16.872 38.0081 16.844 37.8774 16.844L35.7494 16.564C35.6934 16.564 35.6281 16.5827 35.5534 16.62C35.4974 16.6573 35.4601 16.6947 35.4414 16.732V24.348L35.7494 24.432Z" fill="#D9D9D9"/>
</svg>
